<svg width="1373" height="2490" viewBox="0 0 1373 2490" fill="none" xmlns="http://www.w3.org/2000/svg">
<path d="M883.146 2.375L882.164 552.424L881.182 1102.47L835.999 974.782V974.455L777.393 2198.97C835.017 2361.36 865.793 2448.13 866.121 2448.45C866.448 2448.78 899.189 2450.75 938.806 2452.71C1058.64 2458.6 1207.28 2471.37 1320.24 2485.45C1346.43 2488.73 1368.69 2490.36 1370.33 2489.05C1371.97 2487.74 1372.3 1927.87 1371.97 1244.57L1370.99 2.375H883.146Z" fill="#B1060F"/>
<path d="M0.776367 0.738074V1244.24C0.776367 1928.2 1.43119 2488.4 2.41342 2489.38C3.39565 2490.36 45.6315 2486.11 96.7074 2480.54C147.783 2474.97 218.177 2467.77 253.209 2464.82C306.905 2460.24 467.99 2450.09 486.325 2449.76C491.891 2449.76 492.219 2421.93 492.873 1922.96L493.856 1396.16L532.817 1506.17C538.711 1523.19 540.675 1528.43 546.569 1545.13L605.175 320.945C592.733 285.912 599.282 304.247 585.203 264.303C537.401 129.083 496.802 14.8166 495.165 9.57808L491.891 0.410645H0.776367V0.738074Z" fill="#B1060F"/>
<path d="M883.146 2.375L882.164 552.424L881.182 1102.47L835.999 974.782V974.455L777.393 2198.97C835.017 2361.36 865.793 2448.13 866.121 2448.45C866.448 2448.78 899.189 2450.75 938.806 2452.71C1058.64 2458.6 1207.28 2471.37 1320.24 2485.45C1346.43 2488.73 1368.69 2490.36 1370.33 2489.05C1371.97 2487.74 1372.3 1927.87 1371.97 1244.57L1370.99 2.375H883.146Z" fill="#B1060F"/>
<path d="M0.776367 0.738074V1244.24C0.776367 1928.2 1.43119 2488.4 2.41342 2489.38C3.39565 2490.36 45.6315 2486.11 96.7074 2480.54C147.783 2474.97 218.177 2467.77 253.209 2464.82C306.905 2460.24 467.99 2450.09 486.325 2449.76C491.891 2449.76 492.219 2421.93 492.873 1922.96L493.856 1396.16L532.817 1506.17C538.711 1523.19 540.675 1528.43 546.569 1545.13L605.175 320.945C592.733 285.912 599.282 304.247 585.203 264.303C537.401 129.083 496.802 14.8166 495.165 9.57808L491.891 0.410645H0.776367V0.738074Z" fill="#B1060F"/>
<path d="M0.776367 0.738074V698.776L492.546 2003.18C492.546 1973.38 492.546 1957.01 492.873 1922.96L493.856 1396.16L532.817 1506.17C748.908 2119.08 865.139 2447.8 865.793 2448.45C866.121 2448.78 898.862 2450.75 938.478 2452.71C1058.31 2458.6 1206.95 2471.37 1319.91 2485.45C1346.1 2488.73 1368.37 2490.36 1370 2489.05C1370.99 2488.07 1371.64 2213.7 1371.64 1826.38L882.491 419.168L882.164 552.424L881.182 1102.47L835.999 974.782C791.799 850.039 762.332 766.55 584.548 264.303C536.746 129.083 496.148 14.8166 494.511 9.57808L491.236 0.410645H0.776367V0.738074Z" fill="url(#paint0_radial_216_252)"/>
<path d="M0.776367 0.738074L493.528 1397.14V1396.49L532.49 1506.5C748.908 2119.08 865.139 2447.8 865.793 2448.45C866.121 2448.78 898.862 2450.75 938.478 2452.71C1058.31 2458.6 1206.95 2471.37 1319.91 2485.45C1345.78 2488.73 1368.37 2490.36 1369.68 2489.05L881.182 1102.14V1102.47L835.999 974.782C791.799 850.039 762.332 766.55 584.548 264.303C536.746 129.083 496.148 14.8166 494.51 9.57808L491.236 0.410645H246.006L0.776367 0.738074Z" fill="#E50914"/>
<defs>
<radialGradient id="paint0_radial_216_252" cx="0" cy="0" r="1" gradientTransform="matrix(85.3743 -29.5647 -1082.87 -3127.41 663.258 1230.52)" gradientUnits="userSpaceOnUse">
<stop/>
<stop offset="1" stop-opacity="0"/>
</radialGradient>
</defs>
</svg>
