<?xml version="1.0" encoding="utf-8"?>
<!-- Generator: Adobe Illustrator 25.2.3, SVG Export Plug-In . SVG Version: 6.00 Build 0)  -->
<svg version="1.1" id="Capa_1" xmlns="http://www.w3.org/2000/svg" xmlns:xlink="http://www.w3.org/1999/xlink" x="0px" y="0px"
	 viewBox="0 0 32 32" style="enable-background:new 0 0 32 32;" xml:space="preserve">
<style type="text/css">
	.st0{fill:#FFFFFF;}
</style>
<path class="st0" d="M3.9,18c-0.3-3.8,1-7.6,3.5-10.5c2.5-2.9,6.2-4.6,10-4.7c3.8-0.1,7.5,1.3,10.3,3.9c2.8,2.7,4.3,6.3,4.3,10.2V16
	c0-8.8-7.2-16-16-16S0,7.2,0,16s7.2,16,16,16h1.1C9.7,31.5,4,25.4,3.9,18L3.9,18z M25.6,18.7c-5.7,0-7.2-8-1.8-10
	c-1.6-0.8-3.4-1.3-5.2-1.2c-4.5,0-8.6,2.7-10.3,6.9c-1.7,4.2-0.8,9,2.4,12.2c3.2,3.2,8,4.2,12.2,2.4c4.2-1.7,6.9-5.8,6.9-10.3
	c0-0.7,0-1.4-0.2-2.1C28.8,17.9,27.3,18.8,25.6,18.7L25.6,18.7z"/>
</svg>
